<svg xmlns="http://www.w3.org/2000/svg" xml:space="preserve" fill-rule="evenodd" stroke-linejoin="round" stroke-miterlimit="2" clip-rule="evenodd" viewBox="0 0 1920 1920">
  <path fill="#34c6f4" d="M584.568 374.799H405a62.998 62.998 0 0 0-56.34 91.168l555.042 1110.085a62.987 62.987 0 0 0 112.682 0L1385.1 838.595l70.487 140.763-326.501 653.024a189.028 189.028 0 0 1-169.044 104.495 189.028 189.028 0 0 1-169.044-104.495L235.956 522.308A188.995 188.995 0 0 1 405 248.802h116.47l63.098 126.008z"/>
  <path fill="#34c6f4" d="M591.57 248.802h140.574L795.219 374.8H654.645Zm280.982 0h70.287l63.076 125.997H935.64ZM647.81 500.784l312.233 624.488 163.173-326.368 152.405-23.063-315.578 631.156-453.107-906.213Z"/>
  <path fill="#b957ce" d="m1419.84 626.603-259.658 39.26 186.99-184.365-116.526-232.696 232.087 118.708 186.99-184.387-42.87 259.083 233.138 120.856-259.658 39.248-42.87 259.094-117.611-234.812z"/>
</svg>