<svg xmlns="http://www.w3.org/2000/svg" xml:space="preserve" fill-rule="evenodd" stroke-linejoin="round" stroke-miterlimit="2" clip-rule="evenodd" viewBox="0 0 1920 1920">
  <path d="M580.666 369.65H399.518a63.553 63.553 0 0 0-56.836 91.97L902.61 1581.473a63.541 63.541 0 0 0 113.672 0l371.962-743.946 71.107 142.001-329.374 658.77a190.691 190.691 0 0 1-170.531 105.415 190.691 190.691 0 0 1-170.531-105.415L228.987 518.456a190.658 190.658 0 0 1 170.531-275.912h117.495l63.653 127.116z"/>
  <path d="M587.729 242.544H729.54l63.631 127.105H651.36zm283.455 0h70.906l63.631 127.105h-70.895zm-226.72 254.2 314.981 629.982 164.609-329.24L1277.8 774.22l-318.355 636.71-457.094-914.187zM1423.288 623.67l-261.943 39.604 188.635-185.986-117.55-234.744 234.128 119.752 188.635-186.009-43.247 261.363 235.19 121.92-261.943 39.593-43.248 261.373L1423.3 623.66z"/>
</svg>